<?xml version="1.0" encoding="UTF-8"?><svg id="a" xmlns="http://www.w3.org/2000/svg" viewBox="0 0 1845.95 455.92"><path d="M372.75,25.77c3.65,1.83,5.48,6.56,5.48,14.19v38.83c0,3.98-.58,7.22-1.74,9.71-1.17,2.49-2.49,4.32-3.98,5.48-1.49,1.17-3.07,1.91-4.73,2.24-1.66,.33-2.99,.5-3.98,.5h-127.94V416.32c0,7.64-1.74,12.37-5.23,14.19-3.48,1.83-6.39,2.74-8.71,2.74h-45.8c-1.99,0-4.81-.91-8.46-2.74-3.66-1.82-5.48-6.55-5.48-14.19V96.71H34.22c-1,0-2.33-.16-3.98-.5-1.66-.33-3.24-1.07-4.73-2.24-1.49-1.16-2.82-2.99-3.98-5.48-1.17-2.49-1.74-5.73-1.74-9.71V39.96c0-7.63,1.82-12.36,5.48-14.19,3.65-1.82,6.63-2.74,8.96-2.74H363.78c2.32,0,5.31,.92,8.96,2.74Z" fill="#fff"/><path d="M487.27,203.25c-3.01-12.27-4.51-26.55-4.51-42.81v-43.31c0-31.86,6.8-56.58,20.41-74.18,13.94-17.92,37.34-26.88,70.19-26.88h145.86c24.89,0,46.3,2.82,64.22,8.46,18.13,5.65,32.48,14.77,43.02,27.38,11.54,12.94,19.62,29.21,24.24,48.79,5.27,19.25,7.91,43.48,7.91,72.68v102.55c0,29.54-2.64,53.94-7.91,73.18-4.95,19.25-13.03,35.35-24.24,48.29s-25.55,22.08-43.02,27.38c-17.6,5.97-39,8.96-64.22,8.96h-184.69c-7.3,0-10.95-4.51-10.95-13.54v-47.11c0-8.68,3.65-13.03,10.95-13.03h184.69c12.61,0,23.4-1.31,32.36-3.96,8.29-2.31,14.93-6.77,19.91-13.38,4.98-6.27,8.46-14.53,10.45-24.77s2.99-23.28,2.99-39.13v-108.32c0-15.53-1-28.57-2.99-39.14-1.99-10.57-5.47-18.83-10.43-24.77-5.31-6.27-11.92-10.56-19.87-12.88-4.31-1.65-9.12-2.72-14.41-3.22-5.3-.5-11.26-.75-17.88-.75h-133.62c-10.27,0-17.72,2.81-22.36,8.42-4.64,6.28-6.95,15.36-6.95,27.25v35.18c0,12.55,2.15,21.48,6.47,26.76,4.64,5.62,12.11,8.42,22.4,8.42h128.44c3.31,0,6.14,1.17,8.46,3.48,2.32,2.33,3.48,5.15,3.48,8.46v41.32c0,3.66-1.17,6.56-3.48,8.71-2.33,2.16-5.15,3.24-8.46,3.24h-143.37c-16.31,0-29.98-2.16-41.01-6.47-10.69-4.31-19.71-10.95-27.06-19.91-7.02-8.29-12.03-18.75-15.04-31.36Z" fill="#fff"/><path d="M1312.13,411.84c1.99,2.66,2.65,6.64,1.99,11.95-1,6.64-4.82,9.96-11.45,9.96h-54.37c-4.62,0-8.08-1-10.38-2.99-1-.66-1.9-1.57-2.72-2.74-.82-1.16-1.73-2.57-2.71-4.23l-90.11-159.8h-105.04v152.33c0,7.64-1.74,12.45-5.23,14.44-3.49,1.99-6.39,2.99-8.71,2.99h-45.3c-2.33,0-5.31-1-8.96-2.99-3.66-1.99-5.48-6.8-5.48-14.44V207.23c0-7.63,1.82-12.36,5.48-14.19,3.65-1.82,6.63-2.74,8.96-2.74h216.55c12.61,0,21.41-3.65,26.38-10.95,5.31-7.3,7.97-19.24,7.97-35.84s-2.66-28.54-7.97-35.84c-4.98-7.3-13.78-10.95-26.38-10.95h-216.55c-2.33,0-5.31-.91-8.96-2.74-3.66-1.82-5.48-6.55-5.48-14.19V40.46c0-7.97,1.82-12.86,5.47-14.69,3.64-1.82,6.63-2.74,8.95-2.74h229.16c34.13,0,58.65,10.63,73.57,31.86,14.25,20.58,21.54,50.12,21.87,88.61-.33,38.5-7.59,68.04-21.76,88.61-12.53,17.26-31,27.38-55.4,30.37l86.62,149.35Zm-9.46-266.83v0Z" fill="#fff"/></svg>