<?xml version="1.0" encoding="UTF-8"?><svg id="a" xmlns="http://www.w3.org/2000/svg" viewBox="0 0 1024 1024"><g><path d="M1000.35,255.95c-144.47,53.1-288.94,106.19-433.41,159.3,2.06-9.35,4.21-23.36,3.3-40.36-.79-14.63-1.6-29.71-10.34-45.35-12.08-21.65-31.93-31.13-40.53-35.09-31.14-14.37-60.43-7.97-69.84-5.77-40.4,9.43-62.84,37.98-70.69,48.28-10.32,13.55-25.21,38.35-27.6,72.42-2.7,38.83,12.37,67.39,18.4,77.6-28.86,10.56-130.98,47.76-130.98,47.76-1.23-3.29-2.94-8.11-4.69-14.02-25.13-84.79,9.77-163.08,16.7-178.59,3.3-7.41,59.88-128.9,191.66-160.41,16.04-3.83,101.54-22.68,165.85,16.14,16.73,10.11,42.98,30.74,62.07,59.78,8.74,13.3,12.63,23.25,14.37,28.16,7.16,20.21,7.41,38.2,6.68,49.38,103.01-26.41,206.03-52.82,309.04-79.23Z" fill="#00d6cb"/><polygon points="654.16 503.23 368.51 850.22 226.54 850.22 413.33 628.94 23.65 728.95 654.16 503.23" fill="#00d6cb"/></g><g><polygon points="368.51 850.22 654.16 503.23 23.65 728.95 413.33 628.94 226.54 850.22 368.51 850.22" fill="none" stroke="#00d6cb" stroke-miterlimit="10" stroke-width="3"/><path d="M238.68,534.74s102.13-37.2,130.98-47.76c-6.03-10.21-21.11-38.77-18.4-77.6,2.39-34.08,17.27-58.88,27.6-72.42,7.85-10.3,30.29-38.85,70.69-48.28,9.41-2.2,38.7-8.6,69.84,5.77,8.61,3.96,28.46,13.44,40.53,35.09,8.74,15.64,9.55,30.73,10.34,45.35,.91,16.99-1.25,31.01-3.3,40.36,144.47-53.1,288.94-106.19,433.41-159.3-103.02,26.41-206.04,52.82-309.04,79.23,.73-11.17,.48-29.16-6.68-49.38-1.74-4.92-5.63-14.86-14.37-28.16-19.1-29.04-45.34-49.67-62.07-59.78-64.31-38.83-149.81-19.98-165.85-16.14-131.78,31.51-188.35,153.01-191.66,160.41-6.93,15.51-41.83,93.8-16.7,178.59,1.75,5.9,3.46,10.72,4.69,14.02Z" fill="none" stroke="#00d6cb" stroke-miterlimit="10" stroke-width="3"/></g></svg>
